<svg width="32" height="32" viewBox="0 0 32 32" fill="none" xmlns="http://www.w3.org/2000/svg">
<path d="M15.9998 2.66667C14.2489 2.66667 12.5151 3.01155 10.8974 3.68161C9.27972 4.35167 7.80986 5.3338 6.57175 6.57192C4.07126 9.0724 2.6665 12.4638 2.6665 16C2.6665 21.8933 6.49317 26.8933 11.7865 28.6667C12.4532 28.7733 12.6665 28.36 12.6665 28V25.7467C8.97317 26.5467 8.1865 23.96 8.1865 23.96C7.57317 22.4133 6.7065 22 6.7065 22C5.49317 21.1733 6.79984 21.2 6.79984 21.2C8.13317 21.2933 8.83984 22.5733 8.83984 22.5733C9.99984 24.6 11.9598 24 12.7198 23.68C12.8398 22.8133 13.1865 22.2267 13.5598 21.8933C10.5998 21.56 7.49317 20.4133 7.49317 15.3333C7.49317 13.8533 7.99984 12.6667 8.8665 11.72C8.73317 11.3867 8.2665 10 8.99984 8.20001C8.99984 8.20001 10.1198 7.84001 12.6665 9.56001C13.7198 9.26667 14.8665 9.12001 15.9998 9.12001C17.1332 9.12001 18.2798 9.26667 19.3332 9.56001C21.8798 7.84001 22.9998 8.20001 22.9998 8.20001C23.7332 10 23.2665 11.3867 23.1332 11.72C23.9998 12.6667 24.5065 13.8533 24.5065 15.3333C24.5065 20.4267 21.3865 21.5467 18.4132 21.88C18.8932 22.2933 19.3332 23.1067 19.3332 24.3467V28C19.3332 28.36 19.5465 28.7867 20.2265 28.6667C25.5198 26.88 29.3332 21.8933 29.3332 16C29.3332 14.249 28.9883 12.5152 28.3182 10.8976C27.6482 9.27989 26.666 7.81003 25.4279 6.57192C24.1898 5.3338 22.72 4.35167 21.1023 3.68161C19.4846 3.01155 17.7508 2.66667 15.9998 2.66667Z" fill="#3D3D3D"/>
</svg>
