<svg width="435" height="438" viewBox="0 0 435 438" fill="none" xmlns="http://www.w3.org/2000/svg">
<g opacity="0.9" filter="url(#filter0_f_116_1465)">
<circle cx="217" cy="209" r="99" fill="#E3DBFF"/>
</g>
<path opacity="0.3" d="M394.103 241.531C399.833 202.435 392.503 162.54 373.248 128.034C353.994 93.5285 323.892 66.3404 287.611 50.6865C251.33 35.0325 210.897 31.7876 172.584 41.4551C134.271 51.1225 100.218 73.162 75.7075 104.155L216.5 215.5L394.103 241.531Z" fill="url(#paint0_angular_116_1465)"/>
<g filter="url(#filter1_d_116_1465)">
<path d="M393.811 240.147L240.14 209.206L235.89 224.789L393.306 243.312C394.176 243.415 394.967 242.801 395.084 241.933C395.196 241.095 394.639 240.314 393.811 240.147Z" fill="url(#paint1_linear_116_1465)"/>
</g>
<g filter="url(#filter2_ddddd_116_1465)">
<circle cx="216.5" cy="209.5" r="23.5" fill="white"/>
<circle cx="216.5" cy="209.5" r="23.5" fill="url(#paint2_radial_116_1465)" fill-opacity="0.3"/>
<circle cx="216.5" cy="209.5" r="23.5" fill="url(#paint3_linear_116_1465)" fill-opacity="0.6"/>
<circle cx="216.5" cy="209.5" r="23.5" fill="url(#paint4_linear_116_1465)" fill-opacity="0.6"/>
<circle cx="216.5" cy="209.5" r="23.5" fill="url(#paint5_radial_116_1465)" fill-opacity="0.5"/>
</g>
<mask id="mask0_116_1465" style="mask-type:alpha" maskUnits="userSpaceOnUse" x="193" y="186" width="47" height="47">
<circle cx="216.5" cy="209.5" r="23.5" fill="white"/>
<circle cx="216.5" cy="209.5" r="23.5" fill="url(#paint6_radial_116_1465)" fill-opacity="0.3"/>
</mask>
<g mask="url(#mask0_116_1465)">
<g filter="url(#filter3_f_116_1465)">
<circle cx="216.5" cy="209.5" r="23.5" stroke="white"/>
</g>
</g>
<g filter="url(#filter4_f_116_1465)">
<ellipse cx="217" cy="197" rx="9" ry="5" fill="white"/>
</g>
<path d="M404.848 330.985C405.773 329.417 406.678 327.837 407.563 326.246L383.228 312.707C382.456 314.094 381.667 315.471 380.861 316.838L404.848 330.985Z" fill="#4016D7"/>
<path d="M405.16 300.954C405.359 300.497 405.556 300.039 405.751 299.58L392.982 294.139C392.8 294.566 392.616 294.993 392.431 295.419L405.16 300.954Z" fill="#4016D7"/>
<path d="M413.4 278.459C413.544 277.982 413.686 277.504 413.826 277.025L400.505 273.126C400.374 273.572 400.242 274.017 400.108 274.462L413.4 278.459Z" fill="#4016D7"/>
<path d="M418.884 255.434C418.971 254.943 419.056 254.451 419.139 253.96L405.455 251.638C405.377 252.096 405.298 252.553 405.216 253.011L418.884 255.434Z" fill="#4016D7"/>
<path d="M421.659 231.756C421.688 231.258 421.715 230.761 421.74 230.262L407.878 229.561C407.854 230.025 407.829 230.489 407.802 230.952L421.659 231.756Z" fill="#4016D7"/>
<path d="M421.669 208.413C421.641 207.915 421.61 207.418 421.578 206.92L407.727 207.814C407.757 208.278 407.785 208.742 407.811 209.206L421.669 208.413Z" fill="#4016D7"/>
<path d="M413.43 161.638C413.286 161.161 413.141 160.684 412.994 160.207L399.73 164.295C399.867 164.739 400.002 165.184 400.135 165.629L413.43 161.638Z" fill="#4016D7"/>
<path d="M405.367 139.523C405.169 139.066 404.97 138.609 404.769 138.152L392.067 143.749C392.254 144.174 392.44 144.6 392.624 145.026L405.367 139.523Z" fill="#4016D7"/>
<path d="M394.749 118.406C394.499 117.975 394.248 117.544 393.996 117.114L382.03 124.149C382.266 124.549 382.5 124.951 382.732 125.353L394.749 118.406Z" fill="#4016D7"/>
<path d="M381.83 98.7759C381.533 98.3759 381.233 97.977 380.933 97.5792L369.86 105.95C370.141 106.32 370.419 106.692 370.697 107.065L381.83 98.7759Z" fill="#4016D7"/>
<path d="M366.705 80.7441C366.363 80.3812 366.02 80.0197 365.675 79.6594L355.646 89.2552C355.967 89.5909 356.287 89.9277 356.606 90.2657L366.705 80.7441Z" fill="#4016D7"/>
<path d="M330.519 50.3751C330.102 50.1012 329.684 49.8287 329.266 49.5579L321.726 61.2119C322.116 61.4643 322.505 61.718 322.893 61.9733L330.519 50.3751Z" fill="#7F5BFF"/>
<path d="M310.089 38.5839C309.643 38.3601 309.197 38.138 308.749 37.9175L302.613 50.3674C303.03 50.5728 303.445 50.7798 303.861 50.9882L310.089 38.5839Z" fill="#7F5BFF"/>
<path d="M288.437 29.2447C287.968 29.0742 287.499 28.9053 287.029 28.7382L282.377 41.8158C282.815 41.9715 283.252 42.1288 283.689 42.2877L288.437 29.2447Z" fill="#7F5BFF"/>
<path d="M265.97 22.5088C265.485 22.3934 265 22.2798 264.514 22.168L261.402 35.6948C261.855 35.799 262.307 35.9048 262.759 36.0123L265.97 22.5088Z" fill="#7F5BFF"/>
<path d="M242.952 18.418C242.457 18.3592 241.961 18.3022 241.466 18.247L239.93 32.0419C240.391 32.0933 240.853 32.1464 241.314 32.2012L242.952 18.418Z" fill="#7F5BFF"/>
<path d="M195.421 18.3741C194.926 18.432 194.43 18.4917 193.936 18.5533L195.649 32.3273C196.11 32.2699 196.572 32.2143 197.033 32.1603L195.421 18.3741Z" fill="#7F5BFF" fill-opacity="0.7"/>
<path d="M172.672 22.3571C172.187 22.4709 171.701 22.5865 171.217 22.7039L174.484 36.1941C174.935 36.0847 175.387 35.977 175.84 35.871L172.672 22.3571Z" fill="#7F5BFF" fill-opacity="0.7"/>
<path d="M149.889 29.1265C149.42 29.2963 148.952 29.4678 148.484 29.641L153.306 42.6569C153.742 42.4955 154.178 42.3357 154.615 42.1776L149.889 29.1265Z" fill="#7F5BFF" fill-opacity="0.7"/>
<path d="M128.215 38.4315C127.769 38.6545 127.324 38.8791 126.88 39.1054L133.178 51.4742C133.592 51.2633 134.007 51.054 134.423 50.8463L128.215 38.4315Z" fill="#7F5BFF" fill-opacity="0.7"/>
<path d="M107.8 50.1663C107.383 50.4394 106.966 50.7141 106.551 50.9903L114.24 62.5464C114.627 62.2891 115.014 62.0332 115.403 61.7787L107.8 50.1663Z" fill="#7F5BFF" fill-opacity="0.7"/>
<path d="M71.8787 80.1274C71.5351 80.4888 71.1929 80.8515 70.852 81.2154L80.9816 90.7049C81.2992 90.3658 81.6181 90.028 81.9382 89.6913L71.8787 80.1274Z" fill="#BDACFB"/>
<path d="M56.6222 98.1704C56.3229 98.5693 56.0251 98.9693 55.7288 99.3704L66.8925 107.618C67.1686 107.245 67.446 106.872 67.7248 106.501L56.6222 98.1704Z" fill="#BDACFB"/>
<path d="M43.6448 117.728C43.3936 118.159 43.144 118.59 42.8959 119.023L54.9371 125.927C55.1682 125.524 55.4008 125.122 55.6348 124.721L43.6448 117.728Z" fill="#BDACFB"/>
<path d="M33.0117 138.653C32.8119 139.11 32.6137 139.567 32.4173 140.026L45.1749 145.494C45.358 145.067 45.5426 144.641 45.7287 144.215L33.0117 138.653Z" fill="#BDACFB"/>
<path d="M24.809 160.849C24.6637 161.326 24.5202 161.803 24.3784 162.282L37.6857 166.228C37.8178 165.783 37.9515 165.338 38.0869 164.893L24.809 160.849Z" fill="#BDACFB"/>
<path d="M16.4247 206.876C16.3925 207.373 16.3621 207.871 16.3335 208.369L30.1909 209.164C30.2175 208.7 30.2458 208.237 30.2758 207.773L16.4247 206.876Z" fill="#BDACFB"/>
<path d="M16.2729 230.523C16.2988 231.021 16.3265 231.519 16.356 232.017L30.2118 231.195C30.1843 230.731 30.1585 230.267 30.1345 229.803L16.2729 230.523Z" fill="#BDACFB"/>
<path d="M18.8828 254.089C18.9665 254.581 19.0521 255.072 19.1394 255.563L32.8049 253.132C32.7236 252.674 32.6439 252.217 32.5658 251.759L18.8828 254.089Z" fill="#BDACFB"/>
<path d="M24.2194 277.18C24.3598 277.658 24.502 278.136 24.646 278.613L37.935 274.606C37.8009 274.161 37.6684 273.716 37.5375 273.27L24.2194 277.18Z" fill="#BDACFB"/>
<path d="M32.0398 299.088C32.2341 299.547 32.4301 300.006 32.6277 300.464L45.371 294.962C45.1868 294.535 45.0043 294.108 44.8233 293.68L32.0398 299.088Z" fill="#BDACFB"/>
<path d="M432.14 185.341C431.845 183.545 431.528 181.752 431.189 179.964L403.829 185.154C404.125 186.713 404.401 188.277 404.658 189.843L432.14 185.341Z" fill="#613CEB"/>
<path d="M360.05 56.2262C358.675 55.0332 357.285 53.8574 355.88 52.6992L338.163 74.184C339.387 75.1938 340.599 76.2191 341.798 77.2594L360.05 56.2262Z" fill="#6237FF"/>
<path d="M221.765 3.04181C219.945 3.00612 218.124 2.99328 216.304 3.00329L216.457 30.851C218.044 30.8422 219.632 30.8534 221.219 30.8845L221.765 3.04181Z" fill="#6A41FF"/>
<path d="M80.4734 51.5918C79.0598 52.7387 77.6605 53.9032 76.2761 55.0852L94.358 76.2645C95.5652 75.2338 96.7853 74.2184 98.0179 73.2183L80.4734 51.5918Z" fill="#977AFF"/>
<path d="M3.79695 180.037C3.45829 181.826 3.1421 183.618 2.84845 185.415L30.3318 189.907C30.5879 188.341 30.8636 186.777 31.1589 185.218L3.79695 180.037Z" fill="#A992FF"/>
<path d="M27.9233 327.116C28.8156 328.702 29.7278 330.278 30.6597 331.842L54.5822 317.586C53.7696 316.222 52.9742 314.848 52.1961 313.465L27.9233 327.116Z" fill="#7F5BFF"/>
<defs>
<filter id="filter0_f_116_1465" x="8" y="0" width="418" height="418" filterUnits="userSpaceOnUse" color-interpolation-filters="sRGB">
<feFlood flood-opacity="0" result="BackgroundImageFix"/>
<feBlend mode="normal" in="SourceGraphic" in2="BackgroundImageFix" result="shape"/>
<feGaussianBlur stdDeviation="55" result="effect1_foregroundBlur_116_1465"/>
</filter>
<filter id="filter1_d_116_1465" x="230.89" y="204.206" width="169.208" height="44.1177" filterUnits="userSpaceOnUse" color-interpolation-filters="sRGB">
<feFlood flood-opacity="0" result="BackgroundImageFix"/>
<feColorMatrix in="SourceAlpha" type="matrix" values="0 0 0 0 0 0 0 0 0 0 0 0 0 0 0 0 0 0 127 0" result="hardAlpha"/>
<feOffset/>
<feGaussianBlur stdDeviation="2.5"/>
<feComposite in2="hardAlpha" operator="out"/>
<feColorMatrix type="matrix" values="0 0 0 0 0.741341 0 0 0 0 0.676042 0 0 0 0 0.983333 0 0 0 0.5 0"/>
<feBlend mode="normal" in2="BackgroundImageFix" result="effect1_dropShadow_116_1465"/>
<feBlend mode="normal" in="SourceGraphic" in2="effect1_dropShadow_116_1465" result="shape"/>
</filter>
<filter id="filter2_ddddd_116_1465" x="182" y="184" width="69" height="87" filterUnits="userSpaceOnUse" color-interpolation-filters="sRGB">
<feFlood flood-opacity="0" result="BackgroundImageFix"/>
<feColorMatrix in="SourceAlpha" type="matrix" values="0 0 0 0 0 0 0 0 0 0 0 0 0 0 0 0 0 0 127 0" result="hardAlpha"/>
<feOffset/>
<feColorMatrix type="matrix" values="0 0 0 0 0.498039 0 0 0 0 0.356863 0 0 0 0 1 0 0 0 0.9 0"/>
<feBlend mode="normal" in2="BackgroundImageFix" result="effect1_dropShadow_116_1465"/>
<feColorMatrix in="SourceAlpha" type="matrix" values="0 0 0 0 0 0 0 0 0 0 0 0 0 0 0 0 0 0 127 0" result="hardAlpha"/>
<feOffset dy="2"/>
<feGaussianBlur stdDeviation="2"/>
<feColorMatrix type="matrix" values="0 0 0 0 0.498039 0 0 0 0 0.356863 0 0 0 0 1 0 0 0 0.5 0"/>
<feBlend mode="normal" in2="effect1_dropShadow_116_1465" result="effect2_dropShadow_116_1465"/>
<feColorMatrix in="SourceAlpha" type="matrix" values="0 0 0 0 0 0 0 0 0 0 0 0 0 0 0 0 0 0 127 0" result="hardAlpha"/>
<feOffset dy="7"/>
<feGaussianBlur stdDeviation="3.5"/>
<feColorMatrix type="matrix" values="0 0 0 0 0.498039 0 0 0 0 0.356863 0 0 0 0 1 0 0 0 0.3 0"/>
<feBlend mode="normal" in2="effect2_dropShadow_116_1465" result="effect3_dropShadow_116_1465"/>
<feColorMatrix in="SourceAlpha" type="matrix" values="0 0 0 0 0 0 0 0 0 0 0 0 0 0 0 0 0 0 127 0" result="hardAlpha"/>
<feOffset dy="15"/>
<feGaussianBlur stdDeviation="4.5"/>
<feColorMatrix type="matrix" values="0 0 0 0 0.498039 0 0 0 0 0.356863 0 0 0 0 1 0 0 0 0.15 0"/>
<feBlend mode="normal" in2="effect3_dropShadow_116_1465" result="effect4_dropShadow_116_1465"/>
<feColorMatrix in="SourceAlpha" type="matrix" values="0 0 0 0 0 0 0 0 0 0 0 0 0 0 0 0 0 0 127 0" result="hardAlpha"/>
<feOffset dy="27"/>
<feGaussianBlur stdDeviation="5.5"/>
<feColorMatrix type="matrix" values="0 0 0 0 0.496875 0 0 0 0 0.358333 0 0 0 0 1 0 0 0 0.12 0"/>
<feBlend mode="normal" in2="effect4_dropShadow_116_1465" result="effect5_dropShadow_116_1465"/>
<feBlend mode="normal" in="SourceGraphic" in2="effect5_dropShadow_116_1465" result="shape"/>
</filter>
<filter id="filter3_f_116_1465" x="191.5" y="184.5" width="50" height="50" filterUnits="userSpaceOnUse" color-interpolation-filters="sRGB">
<feFlood flood-opacity="0" result="BackgroundImageFix"/>
<feBlend mode="normal" in="SourceGraphic" in2="BackgroundImageFix" result="shape"/>
<feGaussianBlur stdDeviation="0.5" result="effect1_foregroundBlur_116_1465"/>
</filter>
<filter id="filter4_f_116_1465" x="205" y="189" width="24" height="16" filterUnits="userSpaceOnUse" color-interpolation-filters="sRGB">
<feFlood flood-opacity="0" result="BackgroundImageFix"/>
<feBlend mode="normal" in="SourceGraphic" in2="BackgroundImageFix" result="shape"/>
<feGaussianBlur stdDeviation="1.5" result="effect1_foregroundBlur_116_1465"/>
</filter>
<radialGradient id="paint0_angular_116_1465" cx="0" cy="0" r="1" gradientUnits="userSpaceOnUse" gradientTransform="translate(216.5 215.5) rotate(8.41534) scale(178.92)">
<stop offset="0.59375" stop-color="#7F5BFF" stop-opacity="0"/>
<stop offset="1" stop-color="#7F5BFF"/>
</radialGradient>
<linearGradient id="paint1_linear_116_1465" x1="395.038" y1="241.602" x2="240.544" y2="215.392" gradientUnits="userSpaceOnUse">
<stop stop-color="#BDACFB"/>
<stop offset="1" stop-color="#7F5BFF"/>
</linearGradient>
<radialGradient id="paint2_radial_116_1465" cx="0" cy="0" r="1" gradientUnits="userSpaceOnUse" gradientTransform="translate(216.5 209.5) rotate(90) scale(23.5)">
<stop stop-color="white"/>
<stop offset="0.578125" stop-color="white"/>
<stop offset="1" stop-color="#0A0422"/>
</radialGradient>
<linearGradient id="paint3_linear_116_1465" x1="206.5" y1="187.5" x2="216" y2="233" gradientUnits="userSpaceOnUse">
<stop offset="0.177083" stop-color="white"/>
<stop offset="1" stop-color="white" stop-opacity="0"/>
</linearGradient>
<linearGradient id="paint4_linear_116_1465" x1="231" y1="190" x2="216" y2="233" gradientUnits="userSpaceOnUse">
<stop offset="0.177083" stop-color="white"/>
<stop offset="1" stop-color="white" stop-opacity="0"/>
</linearGradient>
<radialGradient id="paint5_radial_116_1465" cx="0" cy="0" r="1" gradientUnits="userSpaceOnUse" gradientTransform="translate(217 198) rotate(90) scale(7.5)">
<stop stop-color="white"/>
<stop offset="1" stop-color="white" stop-opacity="0"/>
</radialGradient>
<radialGradient id="paint6_radial_116_1465" cx="0" cy="0" r="1" gradientUnits="userSpaceOnUse" gradientTransform="translate(216.5 209.5) rotate(90) scale(23.5)">
<stop stop-color="white"/>
<stop offset="0.578125" stop-color="white"/>
<stop offset="1" stop-color="#0A0422"/>
</radialGradient>
</defs>
</svg>
