<svg width="24" height="18" viewBox="0 0 24 18" fill="none" xmlns="http://www.w3.org/2000/svg">
<path d="M8.76562 18H5.13281V3.89062H0.480469V0.867188H13.418V3.89062H8.76562V18Z" fill="#1F1F1F"/>
<path d="M9.71953 18L13.3406 0.867188H18.1219C19.5125 0.867188 20.6258 1.07812 21.4617 1.5C22.3055 1.91406 22.9148 2.49609 23.2898 3.24609C23.6727 3.99609 23.8641 4.86719 23.8641 5.85938C23.8641 6.875 23.6766 7.76172 23.3016 8.51953C22.9266 9.27734 22.3992 9.91016 21.7195 10.418C21.0477 10.918 20.2586 11.293 19.3523 11.543C18.4461 11.7852 17.4617 11.9062 16.3992 11.9062H14.5711L13.2937 18H9.71953ZM15.2156 8.92969H16.6805C17.3914 8.92969 18.0125 8.8125 18.5437 8.57812C19.0828 8.34375 19.5008 8.00391 19.7977 7.55859C20.1023 7.11328 20.2547 6.57812 20.2547 5.95312C20.2547 5.23438 20.0633 4.70312 19.6805 4.35938C19.3055 4.01562 18.7391 3.84375 17.9812 3.84375H16.2937L15.2156 8.92969Z" fill="#7F5BFF"/>
</svg>
