<svg width="143" height="25" viewBox="0 0 143 25" fill="none" xmlns="http://www.w3.org/2000/svg">
<path d="M8.76562 19H5.13281V4.89062H0.480469V1.86719H13.418V4.89062H8.76562V19ZM19.3477 0.765625V4.48047C19.3477 5.12891 19.3242 5.74609 19.2773 6.33203C19.2383 6.91797 19.207 7.33203 19.1836 7.57422H19.3711C19.6523 7.12109 19.9844 6.75391 20.3672 6.47266C20.7578 6.19141 21.1875 5.98438 21.6562 5.85156C22.125 5.71875 22.6289 5.65234 23.168 5.65234C24.1133 5.65234 24.9375 5.82031 25.6406 6.15625C26.3438 6.48438 26.8906 7.00391 27.2812 7.71484C27.6719 8.41797 27.8672 9.33203 27.8672 10.457V19H24.293V11.3477C24.293 10.4102 24.1211 9.70312 23.7773 9.22656C23.4336 8.75 22.9023 8.51172 22.1836 8.51172C21.4648 8.51172 20.8984 8.67969 20.4844 9.01562C20.0703 9.34375 19.7773 9.83203 19.6055 10.4805C19.4336 11.1211 19.3477 11.9062 19.3477 12.8359V19H15.7734V0.765625H19.3477ZM36.9141 5.62891C38.6719 5.62891 40.0195 6.01172 40.957 6.77734C41.8945 7.54297 42.3633 8.70703 42.3633 10.2695V19H39.8672L39.1758 17.2188H39.082C38.707 17.6875 38.3242 18.0703 37.9336 18.3672C37.543 18.6641 37.0938 18.8828 36.5859 19.0234C36.0781 19.1641 35.4609 19.2344 34.7344 19.2344C33.9609 19.2344 33.2656 19.0859 32.6484 18.7891C32.0391 18.4922 31.5586 18.0391 31.207 17.4297C30.8555 16.8125 30.6797 16.0312 30.6797 15.0859C30.6797 13.6953 31.168 12.6719 32.1445 12.0156C33.1211 11.3516 34.5859 10.9844 36.5391 10.9141L38.8125 10.8438V10.2695C38.8125 9.58203 38.6328 9.07812 38.2734 8.75781C37.9141 8.4375 37.4141 8.27734 36.7734 8.27734C36.1406 8.27734 35.5195 8.36719 34.9102 8.54688C34.3008 8.72656 33.6914 8.95312 33.082 9.22656L31.8984 6.8125C32.5938 6.44531 33.3711 6.15625 34.2305 5.94531C35.0977 5.73438 35.9922 5.62891 36.9141 5.62891ZM38.8125 12.9297L37.4297 12.9766C36.2734 13.0078 35.4688 13.2148 35.0156 13.5977C34.5703 13.9805 34.3477 14.4844 34.3477 15.1094C34.3477 15.6562 34.5078 16.0469 34.8281 16.2812C35.1484 16.5078 35.5664 16.6211 36.082 16.6211C36.8477 16.6211 37.4922 16.3945 38.0156 15.9414C38.5469 15.4883 38.8125 14.8438 38.8125 14.0078V12.9297ZM51.5742 16.3867C51.9648 16.3867 52.3438 16.3477 52.7109 16.2695C53.0859 16.1914 53.457 16.0938 53.8242 15.9766V18.6367C53.4414 18.8086 52.9648 18.9492 52.3945 19.0586C51.832 19.1758 51.2148 19.2344 50.543 19.2344C49.7617 19.2344 49.0586 19.1094 48.4336 18.8594C47.8164 18.6016 47.3281 18.1602 46.9688 17.5352C46.6172 16.9023 46.4414 16.0234 46.4414 14.8984V8.58203H44.7305V7.07031L46.6992 5.875L47.7305 3.10938H50.0156V5.89844H53.6836V8.58203H50.0156V14.8984C50.0156 15.3984 50.1562 15.7734 50.4375 16.0234C50.7266 16.2656 51.1055 16.3867 51.5742 16.3867ZM65.625 15.1094C65.625 16 65.4141 16.7539 64.9922 17.3711C64.5781 17.9805 63.957 18.4453 63.1289 18.7656C62.3008 19.0781 61.2695 19.2344 60.0352 19.2344C59.1211 19.2344 58.3359 19.1758 57.6797 19.0586C57.0312 18.9414 56.375 18.7461 55.7109 18.4727V15.5195C56.4219 15.8398 57.1836 16.1055 57.9961 16.3164C58.8164 16.5195 59.5352 16.6211 60.1523 16.6211C60.8477 16.6211 61.3438 16.5195 61.6406 16.3164C61.9453 16.1055 62.0977 15.832 62.0977 15.4961C62.0977 15.2773 62.0352 15.082 61.9102 14.9102C61.793 14.7305 61.5352 14.5312 61.1367 14.3125C60.7383 14.0859 60.1133 13.793 59.2617 13.4336C58.4414 13.0898 57.7656 12.7422 57.2344 12.3906C56.7109 12.0391 56.3203 11.625 56.0625 11.1484C55.8125 10.6641 55.6875 10.0508 55.6875 9.30859C55.6875 8.09766 56.1562 7.1875 57.0938 6.57812C58.0391 5.96094 59.3008 5.65234 60.8789 5.65234C61.6914 5.65234 62.4648 5.73438 63.1992 5.89844C63.9414 6.0625 64.7031 6.32422 65.4844 6.68359L64.4062 9.26172C63.7578 8.98047 63.1445 8.75 62.5664 8.57031C61.9961 8.39062 61.4141 8.30078 60.8203 8.30078C60.2969 8.30078 59.9023 8.37109 59.6367 8.51172C59.3711 8.65234 59.2383 8.86719 59.2383 9.15625C59.2383 9.36719 59.3047 9.55469 59.4375 9.71875C59.5781 9.88281 59.8438 10.0664 60.2344 10.2695C60.6328 10.4648 61.2148 10.7188 61.9805 11.0312C62.7227 11.3359 63.3672 11.6562 63.9141 11.9922C64.4609 12.3203 64.8828 12.7305 65.1797 13.2227C65.4766 13.707 65.625 14.3359 65.625 15.1094Z" fill="#1F1F1F"/>
<path d="M67.1602 19L70.7812 1.86719H75.5625C76.9531 1.86719 78.0664 2.07812 78.9023 2.5C79.7461 2.91406 80.3555 3.49609 80.7305 4.24609C81.1133 4.99609 81.3047 5.86719 81.3047 6.85938C81.3047 7.875 81.1172 8.76172 80.7422 9.51953C80.3672 10.2773 79.8398 10.9102 79.1602 11.418C78.4883 11.918 77.6992 12.293 76.793 12.543C75.8867 12.7852 74.9023 12.9062 73.8398 12.9062H72.0117L70.7344 19H67.1602ZM72.6562 9.92969H74.1211C74.832 9.92969 75.4531 9.8125 75.9844 9.57812C76.5234 9.34375 76.9414 9.00391 77.2383 8.55859C77.543 8.11328 77.6953 7.57812 77.6953 6.95312C77.6953 6.23438 77.5039 5.70312 77.1211 5.35938C76.7461 5.01562 76.1797 4.84375 75.4219 4.84375H73.7344L72.6562 9.92969ZM81.6211 19L85.4883 0.765625H89.0156L88.3359 3.92969C88.2656 4.28906 88.168 4.69922 88.043 5.16016C87.9258 5.61328 87.8008 6.0625 87.668 6.50781C87.5352 6.94531 87.4141 7.32422 87.3047 7.64453H87.3984C87.7188 7.24609 88.0625 6.89844 88.4297 6.60156C88.8047 6.29688 89.2109 6.0625 89.6484 5.89844C90.0859 5.73438 90.5625 5.65234 91.0781 5.65234C91.8281 5.65234 92.4531 5.80859 92.9531 6.12109C93.4609 6.42578 93.8398 6.85938 94.0898 7.42188C94.3398 7.98438 94.4648 8.65234 94.4648 9.42578C94.4648 9.71484 94.4414 10.0391 94.3945 10.3984C94.3477 10.7578 94.2812 11.1367 94.1953 11.5352L92.6367 19H89.1094L90.7148 11.3477C90.7773 11.082 90.8242 10.832 90.8555 10.5977C90.8867 10.3633 90.9023 10.1484 90.9023 9.95312C90.9023 9.46094 90.7969 9.09766 90.5859 8.86328C90.375 8.62891 90.0586 8.51172 89.6367 8.51172C89.1055 8.51172 88.625 8.74219 88.1953 9.20312C87.7656 9.65625 87.3906 10.2656 87.0703 11.0312C86.7578 11.7969 86.5 12.6445 86.2969 13.5742L85.1484 19H81.6211ZM96.1289 19L98.9062 5.89844H102.434L99.6562 19H96.1289ZM101.238 4.26953C100.738 4.26953 100.316 4.16016 99.9727 3.94141C99.6367 3.72266 99.4688 3.35156 99.4688 2.82812C99.4688 2.375 99.5508 1.99609 99.7148 1.69141C99.8867 1.38672 100.133 1.15625 100.453 1C100.773 0.84375 101.156 0.765625 101.602 0.765625C102.07 0.765625 102.477 0.867188 102.82 1.07031C103.172 1.27344 103.348 1.64062 103.348 2.17188C103.348 2.79688 103.176 3.30469 102.832 3.69531C102.488 4.07812 101.957 4.26953 101.238 4.26953ZM107.016 19.2344C106.18 19.2344 105.449 19.1758 104.824 19.0586C104.207 18.9414 103.629 18.7461 103.09 18.4727V15.5664C103.676 15.9023 104.277 16.1641 104.895 16.3516C105.52 16.5312 106.164 16.6211 106.828 16.6211C107.195 16.6211 107.539 16.5703 107.859 16.4688C108.188 16.3672 108.453 16.2109 108.656 16C108.859 15.7891 108.961 15.5234 108.961 15.2031C108.961 14.9844 108.91 14.7891 108.809 14.6172C108.707 14.4453 108.512 14.2578 108.223 14.0547C107.941 13.8438 107.531 13.5898 106.992 13.293C106.453 12.9883 105.992 12.6758 105.609 12.3555C105.234 12.0352 104.945 11.6719 104.742 11.2656C104.547 10.8594 104.449 10.3828 104.449 9.83594C104.449 8.92969 104.648 8.16797 105.047 7.55078C105.445 6.92578 106.016 6.45312 106.758 6.13281C107.508 5.8125 108.402 5.65234 109.441 5.65234C110.199 5.65234 110.93 5.73828 111.633 5.91016C112.336 6.08203 113.023 6.36719 113.695 6.76562L112.535 9.28516C112.074 9.00391 111.582 8.76953 111.059 8.58203C110.543 8.39453 110.027 8.30078 109.512 8.30078C109.129 8.30078 108.785 8.39062 108.48 8.57031C108.176 8.75 108.023 9.02734 108.023 9.40234C108.023 9.60547 108.078 9.79297 108.188 9.96484C108.297 10.1289 108.48 10.2969 108.738 10.4688C109.004 10.6406 109.359 10.8438 109.805 11.0781C110.336 11.3516 110.805 11.6562 111.211 11.9922C111.625 12.3203 111.949 12.7031 112.184 13.1406C112.418 13.5703 112.535 14.082 112.535 14.6758C112.535 15.6758 112.309 16.5156 111.855 17.1953C111.402 17.8672 110.762 18.375 109.934 18.7188C109.113 19.0625 108.141 19.2344 107.016 19.2344ZM114.621 19L118.488 0.765625H122.016L121.336 3.92969C121.266 4.28906 121.168 4.69922 121.043 5.16016C120.926 5.61328 120.801 6.0625 120.668 6.50781C120.535 6.94531 120.414 7.32422 120.305 7.64453H120.398C120.719 7.24609 121.062 6.89844 121.43 6.60156C121.805 6.29688 122.211 6.0625 122.648 5.89844C123.086 5.73438 123.562 5.65234 124.078 5.65234C124.828 5.65234 125.453 5.80859 125.953 6.12109C126.461 6.42578 126.84 6.85938 127.09 7.42188C127.34 7.98438 127.465 8.65234 127.465 9.42578C127.465 9.71484 127.441 10.0391 127.395 10.3984C127.348 10.7578 127.281 11.1367 127.195 11.5352L125.637 19H122.109L123.715 11.3477C123.777 11.082 123.824 10.832 123.855 10.5977C123.887 10.3633 123.902 10.1484 123.902 9.95312C123.902 9.46094 123.797 9.09766 123.586 8.86328C123.375 8.62891 123.059 8.51172 122.637 8.51172C122.105 8.51172 121.625 8.74219 121.195 9.20312C120.766 9.65625 120.391 10.2656 120.07 11.0312C119.758 11.7969 119.5 12.6445 119.297 13.5742L118.148 19H114.621ZM128.766 24.7656C128.344 24.7656 128 24.7422 127.734 24.6953C127.461 24.6484 127.23 24.5977 127.043 24.543V21.7305C127.246 21.7695 127.457 21.8047 127.676 21.8359C127.887 21.8672 128.129 21.8828 128.402 21.8828C129.145 21.8828 129.758 21.6641 130.242 21.2266C130.727 20.7969 131.148 20.2461 131.508 19.5742L131.812 19L129.891 5.89844H133.348L134.004 11.9688C134.043 12.3281 134.07 12.7148 134.086 13.1289C134.109 13.5352 134.125 13.9375 134.133 14.3359C134.141 14.7344 134.145 15.0898 134.145 15.4023H134.238C134.348 15.1367 134.457 14.8398 134.566 14.5117C134.684 14.1836 134.816 13.8281 134.965 13.4453C135.121 13.0547 135.305 12.6406 135.516 12.2031L138.562 5.89844H142.395L134.426 20.875C133.957 21.7578 133.43 22.4883 132.844 23.0664C132.266 23.6445 131.637 24.0703 130.957 24.3438C130.277 24.625 129.547 24.7656 128.766 24.7656Z" fill="#7F5BFF"/>
</svg>
